<?xml version="1.0" standalone="no"?>
<!DOCTYPE svg PUBLIC "-//W3C//DTD SVG 20010904//EN"
 "http://www.w3.org/TR/2001/REC-SVG-20010904/DTD/svg10.dtd">
<svg version="1.0" xmlns="http://www.w3.org/2000/svg"
 width="294.000000pt" height="294.000000pt" viewBox="0 0 294.000000 294.000000"
 preserveAspectRatio="xMidYMid meet">
<metadata>
Created by potrace 1.14, written by Peter Selinger 2001-2017
</metadata>
<g transform="translate(0.000000,294.000000) scale(0.100000,-0.100000)"
fill="#000000" stroke="none">
<path d="M250 2635 l0 -185 -60 0 -60 0 0 -60 0 -59 -62 -3 -63 -3 0 -610 0
-610 63 -3 62 -3 0 -59 0 -60 60 0 60 0 0 -60 0 -60 -119 0 c-96 0 -120 -3
-125 -15 -3 -8 -4 -173 -3 -367 l2 -353 305 0 305 0 3 368 2 367 976 0 975 0
-3 58 -3 57 -912 3 -913 2 -2 918 -3 917 -242 3 -243 2 0 -185z"/>
<path d="M986 2598 c-3 -50 -6 -408 -6 -795 l0 -704 848 1 c467 1 853 5 858 8
5 4 9 332 9 795 l0 787 -851 0 -851 0 -7 -92z m232 -332 c-3 -45 -6 -51 -27
-54 -13 -2 -28 2 -32 10 -7 10 -9 10 -9 1 0 -18 -27 -16 -34 2 -3 8 -1 15 4
15 6 0 10 7 10 16 0 8 -4 12 -10 9 -14 -9 -12 23 3 40 7 9 28 14 55 13 l43 -2
-3 -50z m492 1 c0 -37 -3 -48 -10 -37 -8 13 -10 12 -10 -2 0 -16 -14 -18 -161
-18 -142 0 -160 2 -155 16 3 8 2 12 -4 9 -6 -4 -10 12 -10 39 l0 45 175 0 175
0 0 -52z m244 37 c11 -27 6 -82 -6 -87 -7 -2 -31 -4 -53 -3 l-40 1 -3 53 -4
52 50 0 c36 0 52 -4 56 -16z m-501 -234 c4 0 7 -22 5 -49 l-3 -50 -170 2 -170
2 -3 44 c-2 24 1 47 6 50 6 3 81 5 169 4 87 -2 162 -3 166 -3z m255 -50 l3
-51 -53 3 -53 3 -3 39 c-5 59 1 66 55 62 l48 -4 3 -52z"/>
<path d="M740 675 l0 -55 60 0 60 0 0 55 0 55 -60 0 -60 0 0 -55z"/>
<path d="M990 675 l0 -55 55 0 55 0 0 55 0 55 -55 0 -55 0 0 -55z"/>
<path d="M1230 676 c0 -30 4 -56 10 -58 5 -1 32 -1 60 0 l50 4 0 54 0 54 -60
0 -60 0 0 -54z"/>
<path d="M861 563 c1 -27 1 -53 0 -60 -1 -7 -23 -13 -58 -15 l-58 -3 -3 -57
-3 -58 61 0 60 0 0 60 0 60 60 0 60 0 0 60 0 60 -60 0 -60 0 1 -47z"/>
<path d="M1110 552 l0 -59 54 -2 54 -2 3 38 c8 77 4 83 -57 83 l-54 0 0 -58z"/>
<path d="M1970 550 l0 -60 362 2 361 3 2 58 1 57 -363 0 -363 0 0 -60z"/>
<path d="M995 482 c-3 -3 -5 -29 -5 -59 l0 -53 55 0 55 0 0 60 0 61 -50 -2
c-28 -2 -52 -5 -55 -7z"/>
<path d="M1237 484 c-4 -4 -7 -32 -7 -61 l0 -54 58 3 57 3 0 55 0 55 -50 3
c-28 2 -54 0 -58 -4z"/>
<path d="M864 308 l2 -53 57 -3 57 -3 0 56 0 55 -58 0 -59 0 1 -52z"/>
<path d="M1110 305 l0 -55 54 0 54 0 4 38 c6 68 3 72 -58 72 l-54 0 0 -55z"/>
</g>
</svg>
